# xmcd CD database file
#
# Track frame offsets:
#	150
#	36457
#	69151
#	88685
#	126908
#	148244
#	168681
#	184518
#	201862
#	215177
#	227951
#	246986
#	261013
#	274417
#	288684
#
# Disc length: 3977 seconds
#
# Revision: 0
# Processed by: cddbd v1.5.2PL0 Copyright (c) Steve Scherf et al.
# Submitted via: CDex 1.51
#
DISCID=fb0f870f
DTITLE=Oscar Peterson - Ben Webster Meets Oscar Peterson Disk 2
DYEAR=1900
DGENRE=Jazz
TTITLE0=Soulville
TTITLE1=Late Date
TTITLE2=Time On My Hands
TTITLE3=Lover, Come Back To Me
TTITLE4=Where Are You?
TTITLE5=Makin' Whoopee
TTITLE6=Ill Wind
TTITLE7=That's All
TTITLE8=That's All (Alt. Take)
TTITLE9=Pennies From Heaven
TTITLE10=Jive At Six
TTITLE11=Don't Get Around Much Anymore
TTITLE12=Who
TTITLE13=Boogie Woogie
TTITLE14=Roses Of Picardy
EXTD=
EXTT0=
EXTT1=
EXTT2=
EXTT3=
EXTT4=
EXTT5=
EXTT6=
EXTT7=
EXTT8=
EXTT9=
EXTT10=
EXTT11=
EXTT12=
EXTT13=
EXTT14=
PLAYORDER=
